P2
# encode.pgm
10 10
255
255 255 254 254 255 255 254 254 255 255 
255 255 254 254 255 255 254 254 255 255 
1 1 0 0 1 1 0 0 1 1 
1 1 0 0 1 1 0 0 1 1 
255 255 254 254 255 255 254 254 255 255 
255 255 254 254 255 255 254 254 255 255 
1 1 0 0 1 1 0 0 1 1 
1 1 0 0 1 1 0 0 1 1 
255 255 254 254 255 255 254 254 255 255 
255 255 254 254 255 255 254 254 255 255 
