P2
# hide.pgm
10 10
1
1 1 0 0 1 1 0 0 1 1 
1 1 0 0 1 1 0 0 1 1 
1 1 0 0 1 1 0 0 1 1 
1 1 0 0 1 1 0 0 1 1 
1 1 0 0 1 1 0 0 1 1 
1 1 0 0 1 1 0 0 1 1 
1 1 0 0 1 1 0 0 1 1 
1 1 0 0 1 1 0 0 1 1 
1 1 0 0 1 1 0 0 1 1 
1 1 0 0 1 1 0 0 1 1 
